<svg
  xmlns="http://www.w3.org/2000/svg"
  viewBox="0 0 100 60"
  width="800"
  height="480"
  preserveAspectRatio="xMinYMid slice"
>
    <rect fill="#e00" width="100" height="11" y="0"/>
    <rect fill="#f80" width="100" height="11" y="10"/>
    <rect fill="#fe0" width="100" height="11" y="20"/>
    <rect fill="#080" width="100" height="11" y="30"/>
    <rect fill="#00f" width="100" height="11" y="40"/>
    <rect fill="#607" width="100" height="10" y="50"/>
    <polygon fill="#000" points="21 0 28 0 58 30 28 60 21 60"/>
    <polygon fill="#530" points="14 0 21 0 51 30 21 60 14 60"/>
    <polygon fill="#8cf" points="7 0 14 0 44 30 14 60 7 60"/>
    <polygon fill="#fad" points="0 0 7 0 37 30 7 60 0 60"/>
    <polygon fill="#fff" points="0 0 30 30 0 60"/>
    <polygon fill="#fe0" points="0 7 23 30 0 53"/>
    <circle fill="#70a" r="8" cx="9" cy="30"/>
    <circle fill="#fe0" r="5" cx="9" cy="30"/>
</svg>
